<svg width="57" height="56" viewBox="0 0 57 56" fill="none" xmlns="http://www.w3.org/2000/svg">
<circle cx="28.0872" cy="28" r="28" fill="white"/>
<path d="M24.0871 26.6667C25.5016 26.6667 26.8582 26.1048 27.8584 25.1046C28.8585 24.1044 29.4205 22.7478 29.4205 21.3333C29.4205 19.9188 28.8585 18.5623 27.8584 17.5621C26.8582 16.5619 25.5016 16 24.0871 16C22.6726 16 21.3161 16.5619 20.3159 17.5621C19.3157 18.5623 18.7538 19.9188 18.7538 21.3333C18.7538 22.7478 19.3157 24.1044 20.3159 25.1046C21.3161 26.1048 22.6726 26.6667 24.0871 26.6667V26.6667Z" stroke="#311C1C" stroke-width="2" stroke-linecap="round" stroke-linejoin="round"/>
<path d="M20.0113 27.6038C18.4353 28.3688 17.1064 29.562 16.1767 31.0468C15.2469 32.5316 14.7538 34.2481 14.7538 36C14.7538 36 14.4592 30.2993 20.0113 27.6038ZM20.0113 27.6038C21.5873 26.8387 23.3468 26.5327 25.0885 26.7206C26.8303 26.9086 28.484 27.583 29.8605 28.6666C29.8605 28.6666 26.087 25.0007 20.0113 27.6038ZM34.7538 29.3333H37.4205M40.5725 34.276L40.9671 36.9426C41.0233 37.3217 40.9971 37.7083 40.8903 38.0763C40.7835 38.4443 40.5987 38.785 40.3485 39.0751C40.0982 39.3652 39.7883 39.598 39.44 39.7576C39.0916 39.9172 38.713 39.9999 38.3298 40H33.8445C33.4613 39.9999 33.0827 39.9172 32.7343 39.7576C32.386 39.598 32.0761 39.3652 31.8258 39.0751C31.5756 38.785 31.3907 38.4443 31.284 38.0763C31.1772 37.7083 31.151 37.3217 31.2071 36.9426L31.6018 34.276C31.6955 33.6434 32.0134 33.0656 32.4975 32.6478C32.9816 32.23 33.5997 32.0001 34.2391 32H37.9351C38.5746 32.0001 39.1927 32.23 39.6768 32.6478C40.1609 33.0656 40.4788 33.6434 40.5725 34.276Z" stroke="#311C1C" stroke-width="2" stroke-linecap="round" stroke-linejoin="round"/>
</svg>
