<svg width="35" height="35" viewBox="0 0 35 35" fill="none" xmlns="http://www.w3.org/2000/svg">
<path d="M24.7916 11.6667V10.2083C24.7916 6.18771 21.5205 2.91666 17.4999 2.91666C13.4793 2.91666 10.2083 6.18771 10.2083 10.2083V14.5833H8.74992C7.14138 14.5833 5.83325 15.8915 5.83325 17.5V29.1667C5.83325 30.7752 7.14138 32.0833 8.74992 32.0833H26.2499C27.8585 32.0833 29.1666 30.7752 29.1666 29.1667V17.5C29.1666 15.8915 27.8585 14.5833 26.2499 14.5833H13.1249V10.2083C13.1249 7.79625 15.0878 5.83333 17.4999 5.83333C19.912 5.83333 21.8749 7.79625 21.8749 10.2083V11.6667H24.7916Z" fill="#151515"/>
</svg>
