<svg width="57" height="56" viewBox="0 0 57 56" fill="none" xmlns="http://www.w3.org/2000/svg">
<circle cx="28.0872" cy="28" r="28" fill="white"/>
<path d="M30.7539 18.6667C30.7539 17.9594 30.4729 17.2811 29.9728 16.781C29.4727 16.281 28.7944 16 28.0872 16C27.3799 16 26.7017 16.281 26.2016 16.781C25.7015 17.2811 25.4205 17.9594 25.4205 18.6667M34.0872 40H36.9792C37.3636 39.9999 37.7434 39.9166 38.0926 39.756C38.4418 39.5954 38.7521 39.3611 39.0024 39.0694C39.2526 38.7776 39.4368 38.4352 39.5423 38.0656C39.6479 37.696 39.6723 37.3079 39.6139 36.928L37.7685 24.928C37.6717 24.2983 37.3526 23.7242 36.8691 23.3094C36.3856 22.8946 35.7696 22.6666 35.1325 22.6667H21.0419C20.4048 22.6666 19.7888 22.8946 19.3052 23.3094C18.8217 23.7242 18.5027 24.2983 18.4059 24.928L16.5592 36.928C16.5007 37.308 16.5252 37.6962 16.6308 38.0659C16.7364 38.4356 16.9207 38.7781 17.1711 39.0699C17.4215 39.3617 17.732 39.5959 18.0814 39.7564C18.4307 39.9169 18.8107 40 19.1952 40H22.0872H34.0872ZM28.0872 37.3333V28V37.3333ZM28.0872 28L32.0872 32L28.0872 28ZM28.0872 28L24.0872 32L28.0872 28Z" stroke="#311C1C" stroke-width="2" stroke-linecap="round" stroke-linejoin="round"/>
</svg>
