<svg width="57" height="56" viewBox="0 0 57 56" fill="none" xmlns="http://www.w3.org/2000/svg">
<circle cx="28.0872" cy="28" r="28" fill="white"/>
<path d="M23.319 23.1712L26.5671 16.63C26.6616 16.4407 26.8071 16.2815 26.987 16.1702C27.167 16.0589 27.3744 16 27.586 16C27.7976 16 28.005 16.0589 28.185 16.1702C28.365 16.2815 28.5104 16.4407 28.605 16.63L31.853 23.1712L39.1143 24.2264C39.3238 24.2554 39.5209 24.3428 39.683 24.4785C39.8452 24.6141 39.966 24.7927 40.0316 24.9937C40.0971 25.1947 40.1049 25.4101 40.0539 25.6153C40.0029 25.8205 39.8952 26.0073 39.7432 26.1542L34.4898 31.2427L35.73 38.4314C35.8888 39.3541 34.9136 40.0567 34.0797 39.6217L27.586 36.226L21.0911 39.6217C20.2585 40.058 19.2833 39.3541 19.4421 38.4302L20.6823 31.2414L15.4289 26.153C15.2776 26.0059 15.1706 25.8194 15.12 25.6145C15.0695 25.4097 15.0774 25.1948 15.1429 24.9942C15.2084 24.7937 15.3289 24.6155 15.4906 24.48C15.6523 24.3445 15.8488 24.2571 16.0577 24.2277L23.319 23.1712Z" stroke="#311C1C" stroke-width="2" stroke-linecap="round" stroke-linejoin="round"/>
</svg>
